<svg xmlns="http://www.w3.org/2000/svg" version="1.1" xmlns:xlink="http://www.w3.org/1999/xlink" width="1500" height="1500" viewBox="0 0 1500 1500"><rect width="1500" height="1500" x="0" y="0" id="background" stroke="transparent" fill="#000000"></rect><svg xml:space="preserve" width="1000" height="1000" data-version="2" data-id="lg_d2kVAPlR45Rs3uegPC" viewBox="0 0 561 186" x="250" y="250"><rect width="100%" height="100%" fill="transparent"></rect><path fill="#bbbbbb" d="M52.625 82.82q-24.18 0-35.63-10.27-11.45-10.27-11.45-29.32 0-19.15 11.45-30.28 11.45-11.13 35.63-11.13 33.81 0 45.26 23.22-9.63 3.32-22.58 9.95-3.1-5.99-9.79-8.88-6.68-2.89-13.64-2.89-10.27 0-15.3 5.41-5.03 5.4-5.03 13.32 0 8.56 5.4 13.96 5.41 5.41 16.54 5.41 8.88 0 14.12-2.95 5.24-2.94 7.7-9.36 8.78 4.71 22.47 10.59-5.35 12.95-17.86 18.09-12.52 5.13-27.29 5.13"></path><rect width="92.34" height="81" x="-46.17" y="-40.5" fill="none" rx="0" ry="0" transform="translate(52.22 42.82)"></rect><path fill="#bbbbbb" d="M150.855 82.82q-24.51 0-36.06-10.64-11.56-10.65-11.56-29.91 0-19.05 11.5-29.75 11.51-10.7 36.12-10.7 24.71 0 36.22 10.7 11.5 10.7 11.5 29.75 0 19.37-11.45 29.96t-36.27 10.59m0-21.82q11.87 0 17.12-4.55 5.24-4.55 5.24-14.18 0-9.42-5.24-14.02-5.25-4.6-17.12-4.6-11.77 0-17.02 4.6-5.24 4.6-5.24 14.02 0 9.52 5.24 14.12 5.25 4.61 17.02 4.61"></path><rect width="95.34" height="81" x="-47.67" y="-40.5" fill="none" rx="0" ry="0" transform="translate(151.4 42.82)"></rect><path fill="#bbbbbb" d="M233.245 60.14q31.03-.21 51.36-1.07-1.4 5.46-1.72 10.49-.32 5.02-.32 12.19h-75.43q.85-20.75.85-38.84 0-18.08-.85-38.84h26.11Z"></path><rect width="77.47" height="77.68" x="-38.73" y="-38.84" fill="none" rx="0" ry="0" transform="translate(246.37 43.41)"></rect><path fill="#bbbbbb" d="M325.265 2.89q20.11 0 31.78 4.87 11.66 4.87 16.31 13.48 4.66 8.62 4.66 21.14 0 11.87-5.35 20.76-5.35 8.88-16.05 13.74-10.7 4.87-26.32 4.87h-19.37q-9.85 0-19.9-.1.85-21.08.85-39.27 0-18.41-.85-38.42 12.73-1.07 34.24-1.07m8.02 57.57q9.95 0 13.27-4.81 3.32-4.82 3.32-13.27 0-8.13-3.48-13.16-3.48-5.03-13.11-5.03-10.38 0-15.51.64v35.63Z"></path><rect width="86.99" height="78.86" x="-43.49" y="-39.43" fill="none" rx="0" ry="0" transform="translate(335.02 42.82)"></rect><path fill="#bbbbbb" d="M49.625 137.81h45.69v44.3h-18.83l-2.25-18.94q-3.21 10.16-11.44 15.09-8.24 4.92-20.12 4.92-10.81 0-19.21-4.82-8.4-4.81-13.16-13.8-4.76-8.99-4.76-20.97 0-19.15 11.45-30.28 11.45-11.13 35.63-11.13 13.8 0 24.34 4.49 10.54 4.5 17.93 13.91-4.82 2.46-18.84 9.85l-2.67 1.5q-4.17-4.18-9.74-6.26-5.56-2.09-11.77-2.09-10.27 0-15.3 5.4-5.03 5.41-5.03 13.32 0 8.56 5.4 13.81 5.41 5.24 16.54 5.24 4.81 0 9.36-1.39t7.65-4.82h-20.87Z"></path><rect width="89.77" height="81" x="-44.88" y="-40.5" fill="none" rx="0" ry="0" transform="translate(50.93 143.18)"></rect><path fill="#bbbbbb" d="M129.135 162.53q40.65-.22 58.95-1.18-.75 4.39-.91 9.04-.16 4.66-.16 11.72h-83.14q.86-20.76.86-38.84 0-18.09-.86-38.84h83.14v19.36h-57.88v10.28q5.13.1 15.19.1 17.01 0 35.2-.64v18.4q-18.19-.64-35.2-.64-10.06 0-15.19.11Z"></path><rect width="84.21" height="77.68" x="-42.1" y="-38.84" fill="none" rx="0" ry="0" transform="translate(146.48 143.77)"></rect><path fill="#bbbbbb" d="M286.425 104.53q-.75 18.09-.75 38.74 0 20.76.75 38.84h-38.31l-25.89-58.42 1.92 58.42h-27.5q.86-20.76.86-38.84 0-17.98-.86-38.74h39.38l26 60.03-1.82-60.03Z"></path><rect width="89.78" height="77.58" x="-44.89" y="-38.79" fill="none" rx="0" ry="0" transform="translate(242.03 143.82)"></rect><path fill="#bbbbbb" d="M357.145 125.72q-12.73-.64-18.83-.75v36.59q6.21-.1 18.83-.74v21.29h-62.16v-21.29q12.3.64 18.72.74v-36.59q-6.42.11-18.72.75v-21.29h62.16Z"></path><rect width="62.16" height="77.68" x="-31.08" y="-38.84" fill="none" rx="0" ry="0" transform="translate(326.56 143.77)"></rect><path fill="#bbbbbb" d="M429.055 104.32h26.53v42.59q-.21 15.72-10.75 26-10.54 10.27-35.47 10.27-25.25 0-34.56-9.79-9.31-9.79-9.1-25.74v-43.33h26.54v41.62q0 4.71.69 7.65.7 2.95 4.5 5.51 3.8 2.57 12.25 2.57 9.2 0 13.48-2.62 4.28-2.62 5.08-5.83.81-3.21.81-8.24Z"></path><rect width="89.93" height="78.86" x="-44.97" y="-39.43" fill="none" rx="0" ry="0" transform="translate(411.12 144.25)"></rect><path fill="#bbbbbb" d="M464.145 172.91q3.64-5.46 6.05-10.17 2.41-4.71 4.65-10.91 7.6 4.38 17.66 6.85 10.06 2.46 18.72 2.46 8.88 0 12.52-1.55 3.64-1.56 3.64-3.38 0-6.52-19.9-6.52-21.83 0-31.67-4.55-9.85-4.55-9.85-14.71 0-14.45 11.99-21.3 11.98-6.84 31.13-6.84 11.13 0 22.85 2.83 11.71 2.84 21.13 7.76-3.1 7.06-6.53 17.23-.64 2.14-1.07 3.21-5.45-4.39-16.48-7.33-11.02-2.95-19.47-2.95-10.16 0-13.7 1.34-3.53 1.34-3.53 3.91 0 2.57 4.87 4.12 4.87 1.55 14.07 1.55 22.69 0 32.96 5.19t10.27 15.89q0 14.98-10.91 21.56-10.92 6.58-33.07 6.58-11.87 0-24.18-2.62-12.3-2.62-22.15-7.65"></path><rect width="90.31" height="80.89" x="-45.16" y="-40.45" fill="none" rx="0" ry="0" transform="translate(509.8 143.24)"></rect></svg></svg>